Coordinates
version=1
nRows=16
nColumns=33
inDegrees=yes

Units are S.I. units (second, meters, Newtons, ...)
Angles are in degrees.

endheader
time	ground_thorax_rot_x	ground_thorax_rot_y	ground_thorax_rot_z	ground_thorax_tx	ground_thorax_ty	ground_thorax_tz	clav_prot_r	clav_elev_r	scapula_abduction_r	scapula_elevation_r	scapula_upward_rot_r	scapula_winging_r	shoulder_elv_r	plane_of_elev_r	axial_rot_r	elbow_flexion_r	pro_sup_r	wrist_flex_r	wrist_dev_r	clav_prot_l	clav_elev_l	scapula_abduction_l	scapula_elevation_l	scapula_upward_rot_l	scapula_winging_l	shoulder_elv_l	plane_of_elev_l	axial_rot_l	elbow_flexion_l	pro_sup_l	wrist_flex_l	wrist_dev_l
      2.62000000	     -0.11659491	      2.72105692	     12.48928361	     -0.11392272	      1.02695356	      0.01812374	      7.39624450	    -11.29564105	     11.23680157	     -2.31353964	     -4.18893002	     -0.63223640	    -54.89109417	    -74.36848345	     84.33886304	    -63.83631879	   -135.07984630	     49.18559924	    -24.99999983	      9.62363293	      0.44962213	    -11.51964216	    -22.38780622	    -35.29915209	     -1.91605438	     54.67322662	    -35.03837412	     -2.48027019	     56.05281822	     33.29003601	    -11.88396487	    -24.99999983
      2.63000000	     -0.12933938	      2.72339487	     12.58920412	     -0.11391306	      1.02739807	      0.01813935	      7.39362204	    -11.29309849	     11.25052397	     -2.33389843	     -4.13958362	     -0.64112437	    -54.85032166	    -74.39975460	     84.30894619	    -63.89189933	   -135.09842190	     49.19158224	    -24.99999983	      9.63740429	      0.45722359	    -11.53442809	    -22.37189427	    -35.25310191	     -1.90124667	     54.72246866	    -35.00719239	     -2.46712616	     56.09165268	     33.27958049	    -11.89041033	    -24.99999983
      2.64000000	     -0.03861045	      3.07905450	     12.69946047	     -0.11415052	      1.02713544	      0.01839945	      6.90745706	    -11.70313820	      9.97012508	     -2.22724612	     -5.27633062	      0.05373241	    -54.73619340	    -75.13441239	     84.08888525	    -65.30862498	   -138.66946198	     49.45699681	    -24.99999983	     10.02973570	     -0.20589420	    -12.55275361	    -22.24348895	    -36.41550044	     -1.59097622	     55.65441736	    -35.18876003	     -2.88730241	     57.14955444	     31.21434797	    -12.10571640	    -24.99999983
      2.65000000	     -0.12918619	      3.07808490	     12.60017726	     -0.11397098	      1.02699677	      0.01845856	      6.83303326	    -11.64686594	      9.91990682	     -2.26330169	     -5.07800863	      0.03813142	    -54.71979249	    -75.12518967	     84.12156596	    -65.84938052	   -138.72695797	     49.58614776	    -24.99999983	     10.04935252	     -0.05138973	    -12.55104322	    -22.34922556	    -36.31875532	     -1.59650268	     55.75659036	    -35.11779122	     -2.72640990	     57.64752593	     31.11192513	    -12.17269311	    -24.99999983
      2.66000000	     -0.18104259	      3.15048495	     12.53135145	     -0.11386603	      1.02687469	      0.01838303	      6.78943367	    -11.58115225	      9.88859728	     -2.25309193	     -4.96333328	      0.01717607	    -54.72079648	    -75.18041201	     84.15649850	    -66.39656126	   -138.81149231	     49.72139227	    -24.99999983	     10.07055942	      0.06293423	    -12.55608531	    -22.41182388	    -36.21410160	     -1.58926082	     55.85734970	    -34.99022846	     -2.62427595	     58.22907307	     30.98969182	    -12.24540469	    -24.99999983
      2.67000000	     -0.21819817	      3.14022682	     12.50547258	     -0.11373888	      1.02680399	      0.01850761	      6.73126295	    -11.51292891	      9.85389475	     -2.26410710	     -4.79609623	     -0.00682729	    -54.66252912	    -75.19676099	     84.14756537	    -67.03094116	   -138.92193318	     49.85699943	    -24.99999983	     10.10330488	      0.16740208	    -12.58870985	    -22.47868767	    -36.14178303	     -1.57863590	     55.97185805	    -34.94692124	     -2.53554902	     58.73120643	     30.86934376	    -12.31197376	    -24.99999983
      2.68000000	     -0.25085494	      3.21233387	     12.45981419	     -0.11363094	      1.02661032	      0.01847240	      6.69137543	    -11.42957048	      9.82060196	     -2.22962811	     -4.69825110	     -0.03159190	    -54.63902733	    -75.27168257	     84.17297358	    -67.74030042	   -139.08289845	     50.00884692	    -24.99999983	     10.12975264	      0.24357017	    -12.60881126	    -22.50924360	    -36.05039779	     -1.56511294	     56.11154337	    -34.84085758	     -2.41384410	     59.40952398	     30.68876502	    -12.40038767	    -24.99999983
      2.69000000	     -0.29381909	      3.28516055	     12.43356482	     -0.11353797	      1.02654407	      0.01852603	      6.66603219	    -11.36567630	      9.82034843	     -2.21902725	     -4.58719909	     -0.06344294	    -54.60918434	    -75.32720523	     84.20222581	    -68.43403650	   -139.23152489	     50.13700928	    -24.99999983	     10.16016739	      0.29515518	    -12.63442109	    -22.50116094	    -35.93052038	     -1.53836829	     56.28823462	    -34.74193811	     -2.26456093	     59.97011471	     30.52916287	    -12.47638723	    -24.99999983
      2.70000000	     -0.31790667	      3.27299139	     12.40473033	     -0.11338291	      1.02653343	      0.01854692	      6.61995636	    -11.31103330	      9.81626731	     -2.25176124	     -4.39846564	     -0.09384394	    -54.50895091	    -75.37493040	     84.18652013	    -69.18508716	   -139.41444103	     50.25066338	    -24.99999983	     10.18762062	      0.33592603	    -12.66547602	    -22.50528449	    -35.85771850	     -1.51587186	     56.41705693	    -34.64757983	     -2.14120465	     60.59883193	     30.35331744	    -12.55076715	    -24.99999983
      2.71000000	     -0.35143712	      3.32116043	     12.37444824	     -0.11326638	      1.02644072	      0.01852591	      6.59391646	    -11.25831752	      9.82574948	     -2.26370207	     -4.25980575	     -0.12409942	    -54.44400831	    -75.47558145	     84.23225316	    -70.00154079	   -139.67371385	     50.34174286	    -24.99999983	     10.21623182	      0.34323297	    -12.69905169	    -22.46958233	    -35.77168472	     -1.48830655	     56.60771035	    -34.54293759	     -1.94355352	     61.29677647	     30.10535715	    -12.62551069	    -24.99999983
      2.72000000	     -0.13759338	      3.33713726	     12.49951426	     -0.11344578	      1.02695502	      0.01849903	      6.47412204	    -11.45980004	      9.40175024	     -2.21051535	     -4.81559422	      0.13747902	    -53.75781335	    -76.22493011	     84.83246631	    -71.13077604	   -142.64755457	     49.52089517	    -24.99999983	     10.30849026	     -0.46235704	    -13.15749164	    -22.13751182	    -36.76440742	     -1.36037835	     57.34700743	    -34.52366330	     -1.59148521	     62.03736105	     27.70686771	    -12.22652721	    -24.99999983
      2.73000000	     -0.25493373	      3.39738889	     12.44064180	     -0.11330293	      1.02694261	      0.01853385	      6.45393739	    -11.44580113	      9.47282842	     -2.31350144	     -4.55233005	      0.09239531	    -53.68314876	    -76.20186125	     84.89374649	    -71.89883157	   -142.70065123	     49.63474617	    -24.99999983	     10.35794267	     -0.34586723	    -13.18835998	    -22.14359837	    -36.54108346	     -1.32242823	     57.56968809	    -34.31492310	     -1.45363112	     62.61012966	     27.60627499	    -12.26733544	    -24.99999983
      2.74000000	     -0.32710909	      3.43163486	     12.37805376	     -0.11309768	      1.02693504	      0.01846782	      6.42825195	    -11.43561859	      9.55252379	     -2.43742365	     -4.24887778	      0.04276042	    -53.54803420	    -76.21051943	     84.91672289	    -72.65853580	   -142.80139988	     49.69605726	    -24.99999983	     10.40135408	     -0.25073742	    -13.21856177	    -22.14370918	    -36.34970551	     -1.28538956	     57.75243832	    -34.08763976	     -1.32059178	     63.29464925	     27.47441469	    -12.29452903	    -24.99999983
      2.75000000	     -0.41890475	      3.48671628	     12.33255088	     -0.11294180	      1.02695152	      0.01844127	      6.42601509	    -11.44446649	      9.66735723	     -2.57012215	     -3.96394732	     -0.01117099	    -53.45222889	    -76.23662618	     85.00034999	    -73.44857141	   -142.93324842	     49.71329023	    -24.99999983	     10.45552427	     -0.18778149	    -13.26780445	    -22.10183060	    -36.13891091	     -1.23311137	     57.98379164	    -33.86939908	     -1.15115699	     63.94052487	     27.31833232	    -12.29559465	    -24.99999983
      2.76000000	     -0.47934025	      3.47803437	     12.29155262	     -0.11273916	      1.02702303	      0.01839103	      6.41424596	    -11.47260828	      9.79737210	     -2.75138236	     -3.60856166	     -0.06615501	    -53.28430039	    -76.25804720	     85.04567962	    -74.23238791	   -143.11379730	     49.66564448	    -24.99999983	     10.51535534	     -0.14174903	    -13.33888089	    -22.06244636	    -35.97026286	     -1.17523329	     58.18174602	    -33.65505481	     -1.02007112	     64.61992803	     27.13778076	    -12.26049921	    -24.99999983
      2.77000000	     -0.28508666	      3.46576322	     12.32329803	     -0.11298421	      1.02707844	      0.01836137	      6.55124029	    -11.19914515	     10.03397263	     -2.50666516	     -3.57836404	     -0.26031725	    -51.99028521	    -76.51874958	     86.75308709	    -75.56046193	   -145.98042995	     46.13314050	    -24.99999983	     10.63529221	     -0.79855022	    -13.77635773	    -21.77238962	    -36.73702812	     -1.04120788	     58.87329897	    -33.43949535	     -0.42056474	     65.55443413	     24.29363242	     -9.39050543	    -24.99999983
